<svg xmlns="http://www.w3.org/2000/svg" xmlns:xlink="http://www.w3.org/1999/xlink" width="694" height="76" viewBox="0 0 694 76">
  <defs>
    <polygon id="usafb-horizontal-dbg--a" points="0 .354 61.315 .354 61.315 76 0 76"/>
  </defs>
  <g fill="none" fill-rule="evenodd" transform="translate(0 -1)">
    <polygon fill="#FFFFFE" points="287.341 61.734 275.24 61.734 275.24 12.479 313.846 12.479 309.018 22.095 287.341 22.095 287.341 32.89 307.376 32.89 302.553 42.505 287.341 42.505"/>
    <g transform="translate(0 .646)">
      <path fill="#FFFFFE" d="M342.9993 52.7841C345.2953 52.7841 347.1663 52.6231 348.6093 52.2991 350.0483 51.9791 351.1863 51.3471 352.0193 50.4021 352.8483 49.4611 353.4203 48.1401 353.7413 46.4571 354.0573 44.7741 354.2143 42.5731 354.2143 39.8501L354.2143 33.0011C354.2143 30.3311 354.0573 28.1371 353.7413 26.4311 353.4203 24.7241 352.8483 23.4071 352.0193 22.4871 351.1863 21.5661 350.0483 20.9301 348.6093 20.5841 347.1663 20.2401 345.2953 20.0651 342.9993 20.0651 340.7003 20.0651 338.8193 20.2261 337.3513 20.5521 335.8853 20.8751 334.7373 21.5091 333.9043 22.4501 333.0733 23.3991 332.4993 24.7111 332.1833 26.3961 331.8613 28.0791 331.7023 30.2821 331.7023 33.0011L331.7023 39.8501C331.7023 42.5271 331.8613 44.7051 332.1833 46.3881 332.4993 48.0731 333.0733 49.3871 333.9043 50.3321 334.7373 51.2761 335.8853 51.9261 337.3513 52.2681 338.8193 52.6141 340.7003 52.7841 342.9993 52.7841M342.9993 62.3321C338.4023 62.3321 334.5743 61.8961 331.5223 61.0181 328.4673 60.1421 326.0223 58.7961 324.1903 56.9721 322.3553 55.1501 321.0603 52.8341 320.3023 50.0161 319.5443 47.2061 319.1683 43.8631 319.1683 39.9911L319.1683 32.7971C319.1683 29.0591 319.5323 25.7961 320.2653 23.0071 320.9983 20.2161 322.2833 17.9021 324.1153 16.0521 325.9493 14.2111 328.3913 12.8261 331.4503 11.9021 334.5003 10.9781 338.3523 10.5181 342.9993 10.5181 347.5933 10.5181 351.4063 10.9571 354.4383 11.8331 357.4673 12.7101 359.9013 14.0591 361.7353 15.8831 363.5673 17.7021 364.8603 20.0061 365.6193 22.7971 366.3773 25.5871 366.7563 28.9231 366.7563 32.7971L366.7563 39.9911C366.7563 43.7701 366.3913 47.0581 365.6553 49.8471 364.9213 52.6381 363.6503 54.9551 361.8423 56.8001 360.0333 58.6431 357.6043 60.0311 354.5473 60.9521 351.4933 61.8731 347.6413 62.3321 342.9993 62.3321M400.4138 52.7841C402.7088 52.7841 404.5788 52.6231 406.0218 52.2991 407.4628 51.9791 408.6008 51.3471 409.4308 50.4021 410.2608 49.4611 410.8348 48.1401 411.1548 46.4571 411.4728 44.7741 411.6288 42.5731 411.6288 39.8501L411.6288 33.0011C411.6288 30.3311 411.4728 28.1371 411.1548 26.4311 410.8348 24.7241 410.2608 23.4071 409.4308 22.4871 408.6008 21.5661 407.4628 20.9301 406.0218 20.5841 404.5788 20.2401 402.7088 20.0651 400.4138 20.0651 398.1148 20.0651 396.2318 20.2261 394.7648 20.5521 393.2988 20.8751 392.1478 21.5091 391.3188 22.4501 390.4868 23.3991 389.9108 24.7111 389.5978 26.3961 389.2758 28.0791 389.1168 30.2821 389.1168 33.0011L389.1168 39.8501C389.1168 42.5271 389.2758 44.7051 389.5978 46.3881 389.9108 48.0731 390.4868 49.3871 391.3188 50.3321 392.1478 51.2761 393.2988 51.9261 394.7648 52.2681 396.2318 52.6141 398.1148 52.7841 400.4138 52.7841M400.4138 62.3321C395.8178 62.3321 391.9878 61.8961 388.9348 61.0181 385.8808 60.1421 383.4368 58.7961 381.6018 56.9721 379.7698 55.1501 378.4758 52.8341 377.7168 50.0161 376.9608 47.2061 376.5808 43.8631 376.5808 39.9911L376.5808 32.7971C376.5808 29.0591 376.9458 25.7961 377.6778 23.0071 378.4118 20.2161 379.6948 17.9021 381.5288 16.0521 383.3618 14.2111 385.8078 12.8261 388.8638 11.9021 391.9158 10.9781 395.7668 10.5181 400.4138 10.5181 405.0058 10.5181 408.8198 10.9571 411.8508 11.8331 414.8808 12.7101 417.3138 14.0591 419.1458 15.8831 420.9798 17.7021 422.2738 20.0061 423.0298 22.7971 423.7888 25.5871 424.1698 28.9231 424.1698 32.7971L424.1698 39.9911C424.1698 43.7701 423.8058 47.0581 423.0678 49.8471 422.3358 52.6381 421.0658 54.9551 419.2578 56.8001 417.4448 58.6431 415.0178 60.0311 411.9608 60.9521 408.9058 61.8731 405.0558 62.3321 400.4138 62.3321"/>
      <polygon fill="#FFFFFE" points="477.257 11.834 472.471 21.451 459.585 21.451 459.585 61.089 447.486 61.089 447.486 21.451 430.406 21.451 430.406 11.834"/>
      <path fill="#FFFFFE" d="M497.4949 52.375L508.5689 52.375C511.1619 52.375 512.9789 51.969 514.0339 51.161 515.0819 50.356 515.6049 48.869 515.6049 46.696L515.6049 45.799C515.6049 43.586 515.0569 42.051 513.9599 41.202 512.8579 40.346 510.9649 39.92 508.2729 39.92L497.4949 39.92 497.4949 52.375zM497.4949 20.552L497.4949 31.272 507.6879 31.272C510.0849 31.272 511.7719 30.859 512.7449 30.027 513.7279 29.194 514.2159 27.883 514.2159 26.085L514.2159 25.256C514.2159 23.592 513.7639 22.396 512.8579 21.656 511.9539 20.92 510.4019 20.552 508.2009 20.552L497.4949 20.552zM486.1289 11.833L510.1069 11.833C515.5809 11.833 519.5799 12.851 522.0999 14.876 524.6149 16.905 525.8759 19.977 525.8759 24.079L525.8759 24.84C525.8759 29.913 523.7229 33.306 519.4219 35.008 521.9139 35.793 523.8569 37.108 525.2489 38.951 526.6449 40.797 527.3399 43.24 527.3399 46.284L527.3399 47.529C527.3399 52.279 525.8129 55.724 522.7599 57.869 519.7019 60.016 515.2649 61.089 509.4479 61.089L486.1289 61.089 486.1289 11.833zM553.0076 40.2666L565.9116 40.2666 559.3856 21.9346 553.0076 40.2666zM568.8486 49.1896L550.0726 49.1896 545.9706 61.0886 533.7946 61.0886 552.6416 11.8336 566.8656 11.8336 585.7856 61.0886 573.0996 61.0886 568.8486 49.1896z"/>
      <polygon fill="#FFFFFE" points="606.539 11.834 606.539 51.471 631.101 51.471 626.121 61.089 594.437 61.089 594.437 11.834"/>
      <polygon fill="#FFFFFE" points="652.073 11.834 652.073 51.471 676.635 51.471 671.655 61.089 639.971 61.089 639.971 11.834"/>
      <path fill="#FFFFFE" d="M73.4173 12.2587L87.3013 12.2587 87.3013 41.9577C87.3013 48.1007 89.3643 50.5057 95.0573 50.5057L108.8183 50.5057C114.5143 50.5057 116.5803 48.1007 116.5803 41.9577L116.5803 12.2587 130.4623 12.2587 130.4623 43.3707C130.4623 55.3917 124.6443 61.1347 111.8853 61.1347L91.9933 61.1347C79.2353 61.1347 73.4173 55.3917 73.4173 43.3707L73.4173 12.2587zM222.2923 41.9628L240.0533 41.9628 231.0433 23.6008 222.2923 41.9628zM222.0433 12.2588L240.1193 12.2588 265.0073 61.1348 249.5573 61.1348 245.2453 52.4908 217.1003 52.4908 213.0313 61.1348 197.5183 61.1348 222.0433 12.2588zM158.0618 23.0278C158.0678 23.0278 158.0718 23.0338 158.0768 23.0338L158.0768 23.0278 208.0658 23.0278 213.5118 12.1818 158.0768 12.1818C141.9448 12.1818 138.7978 17.7658 138.7978 27.1518 138.7978 37.7778 141.9448 42.1168 158.1208 42.1168L176.5288 42.1168 176.5518 42.1168C178.8418 42.1168 180.6968 43.9658 180.6968 46.2438 180.6968 48.5188 178.8418 50.3658 176.5518 50.3658 176.5388 50.3658 137.3158 50.3618 137.3158 50.3618L131.8698 61.2128 178.0048 61.2128C190.1278 61.2128 195.9158 58.1198 195.9158 46.2428 195.9158 34.3618 190.1278 31.2748 178.0048 31.2748L158.0768 31.2748 158.0618 31.2748C155.7708 31.2748 153.9158 29.4288 153.9158 27.1548 153.9158 24.8718 155.7708 23.0278 158.0618 23.0278M688.4871 55.5605L687.4241 55.5605 687.4241 54.1625 688.4871 54.1625C688.9631 54.1625 689.2581 54.4325 689.2581 54.8695 689.2581 55.3015 688.9711 55.5605 688.4871 55.5605M690.3611 54.8595C690.3611 53.8505 689.6161 53.1465 688.5471 53.1465L686.3221 53.1465 686.3221 58.8025 687.4241 58.8025 687.4241 56.5405 688.2121 56.5405 689.3411 58.8025 690.6191 58.8025 689.3491 56.3685C689.9781 56.1285 690.3611 55.5635 690.3611 54.8595"/>
      <path fill="#FFFFFE" d="M688.1345,60.3662 C685.8115,60.3662 683.9225,58.4762 683.9225,56.1542 C683.9225,53.8312 685.8115,51.9452 688.1345,51.9452 C690.4525,51.9452 692.3435,53.8312 692.3435,56.1542 C692.3435,58.4762 690.4525,60.3662 688.1345,60.3662 M688.1345,50.9902 C685.2855,50.9902 682.9695,53.3042 682.9695,56.1542 C682.9695,59.0042 685.2855,61.3172 688.1345,61.3172 C690.9815,61.3172 693.2975,59.0042 693.2975,56.1542 C693.2975,53.3042 690.9815,50.9902 688.1345,50.9902"/>
      <mask id="usafb-horizontal-dbg--b" fill="#fff">
        <use xlink:href="#usafb-horizontal-dbg--a"/>
      </mask>
      <path fill="#FFFFFE" d="M45.5657,1.1503 C42.3267,1.6763 38.4667,2.5443 34.3837,3.9823 C23.5517,7.7903 14.9737,14.1403 8.8877,22.8413 C2.1517,32.4723 -0.7793,44.1113 0.1767,57.4293 L0.1857,57.5343 C0.1857,57.5343 0.2097,57.6793 0.2197,57.7333 C0.4357,62.0693 1.5217,67.6763 3.1437,72.7723 C4.1677,75.3133 5.1577,75.9853 7.7197,76.0003 C9.3787,75.9283 11.9907,75.7473 15.1917,75.2263 C25.4817,73.5623 41.8837,68.5013 52.4977,53.2253 C59.1397,43.6623 62.0517,32.3493 61.1567,19.5943 C61.1567,19.5453 61.1537,19.3493 61.1537,19.3493 L61.1507,19.2883 C60.6427,12.0693 59.0657,6.0173 57.8137,3.2453 C56.6577,0.4563 55.4257,-0.4687 45.5657,1.1503" mask="url(#usafb-horizontal-dbg--b)"/>
      <path fill="#8D1830" d="M59.2654,18.935 L59.2514,18.964 C59.1744,19.154 59.0924,19.356 59.0014,19.563 C58.9634,19.643 58.9264,19.725 58.8884,19.806 C58.8284,19.94 58.7724,20.075 58.7064,20.211 C58.6514,20.33 58.5914,20.451 58.5354,20.574 C58.4884,20.669 58.4394,20.772 58.3914,20.873 C58.3174,21.025 58.2384,21.18 58.1644,21.335 C58.1274,21.403 58.0954,21.47 58.0614,21.537 C57.9724,21.719 57.8804,21.893 57.7834,22.07 C57.7664,22.11 57.7444,22.15 57.7244,22.19 C57.6204,22.389 57.5154,22.581 57.4114,22.772 C57.4044,22.787 57.3944,22.804 57.3884,22.819 C57.2764,23.025 57.1624,23.224 57.0514,23.415 C56.9384,23.611 56.8274,23.802 56.7224,23.981 L56.4634,24.493 C50.8784,44.195 33.1134,54.107 12.8774,55.148 C9.4414,55.317 5.9404,55.247 2.4104,54.917 C2.5014,57.048 2.7914,59.532 3.0484,61.396 C6.0374,61.65 9.0184,61.66 11.9584,61.453 C30.0214,60.213 46.5684,50.711 54.5994,37.547 C49.2844,50.477 38.1494,63.339 11.5794,66.277 C9.1744,66.544 6.6544,66.739 3.9864,66.833 C4.3564,69.31 5.4704,72.268 6.1814,73.296 C7.5214,73.453 9.3884,73.53 11.5384,73.341 C27.4184,71.979 61.6894,60.039 59.2654,18.935"/>
      <path fill="#052241" d="M51.5423,16.6992 L50.8693,23.1162 C50.8693,23.1162 49.3543,18.7112 48.2503,16.3752 C48.2503,16.3752 44.7323,16.0542 41.4513,16.5532 L46.7063,12.5732 C45.7843,10.4012 44.2463,8.6722 44.2463,8.6722 C44.2463,8.6722 47.2193,9.0672 49.6693,10.5842 C51.5023,9.3782 53.3483,8.0112 53.3483,8.0112 L52.2673,13.0032 C53.9603,15.0332 55.4263,18.5482 55.4263,18.5482 C55.4263,18.5482 53.5103,17.3282 51.5423,16.6992 M38.1203,32.5302 C38.1203,32.5302 37.1793,36.2762 35.7543,39.1012 C35.7543,39.1012 34.2353,35.3832 32.7303,33.0652 C29.2603,33.6392 24.2983,35.3382 24.2983,35.3382 C27.0133,32.1022 30.3953,29.5952 30.3953,29.5952 C28.3883,26.9072 25.5403,24.6422 25.5403,24.6422 C25.5403,24.6422 30.0083,24.6822 34.5953,26.3112 C37.1853,24.5142 40.5703,22.8192 40.5703,22.8192 C40.5703,22.8192 40.1753,25.8952 39.5053,28.3812 C43.8633,30.5872 45.9733,32.9092 45.9733,32.9092 C42.8533,32.3242 38.1203,32.5302 38.1203,32.5302 M59.2493,18.8832 C59.2493,18.8762 59.2513,18.8742 59.2513,18.8712 C58.6283,9.5592 55.8313,3.4552 55.0453,2.7932 C54.8883,2.6782 54.6613,2.5912 54.4023,2.5182 C53.1283,2.1662 50.6383,2.3462 46.8243,2.8242 C35.9103,4.5612 27.4673,8.4652 21.0303,13.4532 C22.1923,13.1352 23.7123,12.7782 25.1143,12.6342 C28.3653,10.3992 32.6853,8.9752 32.6853,8.9752 C30.6603,10.7152 29.3033,12.5052 29.3033,12.5052 C32.1353,12.5912 35.7543,13.7172 35.7543,13.7172 C31.4583,14.2142 26.8533,15.8382 26.8533,15.8382 C26.2683,16.9302 25.3663,20.7102 25.3663,20.7102 L22.7763,17.8392 C22.7763,17.8392 17.8643,19.9672 16.0743,21.5622 C16.0743,21.5622 18.1103,18.4772 21.2163,15.8072 L19.6863,14.5342 C12.2483,20.7432 7.6983,28.4282 5.2163,35.6872 C5.9173,35.3792 6.8333,35.0002 7.8703,34.6322 C8.9863,32.0832 9.8663,30.7522 11.5643,28.2272 C11.2083,30.4052 10.8423,34.0072 10.8423,34.0072 C10.8423,34.0072 13.7953,33.5692 16.7373,33.8182 C16.7373,33.8182 12.7353,35.9192 10.5953,38.1592 C10.5953,38.1592 10.7713,41.9262 10.8913,45.0972 C9.5643,43.3672 8.8503,42.4902 7.9123,40.8932 C6.4473,42.6092 5.9883,43.3962 5.0413,44.8712 C5.5223,42.3172 5.7883,41.0672 6.5893,38.5252 L4.7613,37.0952 C3.3823,41.5792 2.7853,45.8552 2.7783,49.4542 C3.3223,49.4912 3.9483,49.5312 4.6473,49.5632 C5.5663,49.6082 6.6093,49.6462 7.7543,49.6622 C8.5003,49.6712 9.2953,49.6742 10.1243,49.6622 L10.1673,49.6622 C11.4063,49.6382 12.7403,49.5862 14.1333,49.4882 C22.0413,48.9392 32.1323,46.9542 41.2253,40.8882 C41.2253,40.8882 50.8173,34.3312 56.5213,24.3102 C56.5823,24.2112 56.6523,24.0932 56.7223,23.9812 C56.8273,23.8022 56.9393,23.6112 57.0513,23.4152 C57.1613,23.2232 57.2763,23.0222 57.3883,22.8192 C57.3953,22.8042 57.4043,22.7872 57.4113,22.7722 C57.5163,22.5842 57.6203,22.3862 57.7243,22.1902 C57.7443,22.1502 57.7663,22.1102 57.7833,22.0702 C57.8803,21.8932 57.9723,21.7142 58.0613,21.5372 C58.0953,21.4702 58.1273,21.4032 58.1643,21.3352 C58.2383,21.1802 58.3173,21.0252 58.3913,20.8732 C58.4393,20.7722 58.4883,20.6692 58.5353,20.5742 C58.5913,20.4512 58.6513,20.3302 58.7063,20.2112 C58.7723,20.0742 58.8293,19.9402 58.8883,19.8052 C58.9263,19.7252 58.9633,19.6432 59.0013,19.5632 C59.0923,19.3522 59.1793,19.1492 59.2563,18.9522 C59.2513,18.9282 59.2513,18.9072 59.2493,18.8832"/>
    </g>
  </g>
</svg>
