<svg xmlns="http://www.w3.org/2000/svg" width="694" height="76" viewBox="0 0 694 76" class="undefined"><style>.a{fill:none;}.b{fill:#FFFFFE;}.c{fill:#fff;}.d{fill:#8D1830;}.e{fill:#052241;}</style><defs class="undefined"><polygon points="0 0 61 0 61 76 0 76" class="undefined"/></defs><g transform="translate(0 -1)" class="a"><polygon points="287 62 275 62 275 12 314 12 309 22 287 22 287 33 307 33 303 43 287 43" class="b"/><g transform="translate(0 0.646)" class="undefined"><path d="M343 53C345 53 347 53 349 52 350 52 351 51 352 50 353 49 353 48 354 46 354 45 354 43 354 40L354 33C354 30 354 28 354 26 353 25 353 23 352 22 351 22 350 21 349 21 347 20 345 20 343 20 341 20 339 20 337 21 336 21 335 22 334 22 333 23 332 25 332 26 332 28 332 30 332 33L332 40C332 43 332 45 332 46 332 48 333 49 334 50 335 51 336 52 337 52 339 53 341 53 343 53M343 62C338 62 335 62 332 61 328 60 326 59 324 57 322 55 321 53 320 50 320 47 319 44 319 40L319 33C319 29 320 26 320 23 321 20 322 18 324 16 326 14 328 13 331 12 335 11 338 11 343 11 348 11 351 11 354 12 357 13 360 14 362 16 364 18 365 20 366 23 366 26 367 29 367 33L367 40C367 44 366 47 366 50 365 53 364 55 362 57 360 59 358 60 355 61 351 62 348 62 343 62M400 53C403 53 405 53 406 52 407 52 409 51 409 50 410 49 411 48 411 46 411 45 412 43 412 40L412 33C412 30 411 28 411 26 411 25 410 23 409 22 409 22 407 21 406 21 405 20 403 20 400 20 398 20 396 20 395 21 393 21 392 22 391 22 390 23 390 25 390 26 389 28 389 30 389 33L389 40C389 43 389 45 390 46 390 48 390 49 391 50 392 51 393 52 395 52 396 53 398 53 400 53M400 62C396 62 392 62 389 61 386 60 383 59 382 57 380 55 378 53 378 50 377 47 377 44 377 40L377 33C377 29 377 26 378 23 378 20 380 18 382 16 383 14 386 13 389 12 392 11 396 11 400 11 405 11 409 11 412 12 415 13 417 14 419 16 421 18 422 20 423 23 424 26 424 29 424 33L424 40C424 44 424 47 423 50 422 53 421 55 419 57 417 59 415 60 412 61 409 62 405 62 400 62" class="b"/><polygon points="477 12 472 21 460 21 460 61 447 61 447 21 430 21 430 12" class="b"/><path d="M497 52L509 52C511 52 513 52 514 51 515 50 516 49 516 47L516 46C516 44 515 42 514 41 513 40 511 40 508 40L497 40 497 52zM497 21L497 31 508 31C510 31 512 31 513 30 514 29 514 28 514 26L514 25C514 24 514 22 513 22 512 21 510 21 508 21L497 21zM486 12L510 12C516 12 520 13 522 15 525 17 526 20 526 24L526 25C526 30 524 33 519 35 522 36 524 37 525 39 527 41 527 43 527 46L527 48C527 52 526 56 523 58 520 60 515 61 509 61L486 61 486 12zM553 40L566 40 559 22 553 40zM569 49L550 49 546 61 534 61 553 12 567 12 586 61 573 61 569 49z" class="b"/><polygon points="607 12 607 51 631 51 626 61 594 61 594 12" class="b"/><polygon points="652 12 652 51 677 51 672 61 640 61 640 12" class="b"/><path d="M73 12L87 12 87 42C87 48 89 51 95 51L109 51C115 51 117 48 117 42L117 12 130 12 130 43C130 55 125 61 112 61L92 61C79 61 73 55 73 43L73 12zM222 42L240 42 231 24 222 42zM222 12L240 12 265 61 250 61 245 52 217 52 213 61 198 61 222 12zM158 23C158 23 158 23 158 23L158 23 208 23 214 12 158 12C142 12 139 18 139 27 139 38 142 42 158 42L177 42 177 42C179 42 181 44 181 46 181 49 179 50 177 50 177 50 137 50 137 50L132 61 178 61C190 61 196 58 196 46 196 34 190 31 178 31L158 31 158 31C156 31 154 29 154 27 154 25 156 23 158 23M688 56L687 56 687 54 688 54C689 54 689 54 689 55 689 55 689 56 688 56M690 55C690 54 690 53 689 53L686 53 686 59 687 59 687 57 688 57 689 59 691 59 689 56C690 56 690 56 690 55" class="b"/><path d="M688 60C686 60 684 58 684 56 684 54 686 52 688 52 690 52 692 54 692 56 692 58 690 60 688 60M688 51C685 51 683 53 683 56 683 59 685 61 688 61 691 61 693 59 693 56 693 53 691 51 688 51" class="b"/><mask class="c"><use xlink:href="#usafb-horizontal-dbg--a" class="undefined"/></mask><path d="M46 1C42 2 38 3 34 4 24 8 15 14 9 23 2 32-1 44 0 57L0 58C0 58 0 58 0 58 0 62 2 68 3 73 4 75 5 76 8 76 9 76 12 76 15 75 25 74 42 69 52 53 59 44 62 32 61 20 61 20 61 19 61 19L61 19C61 12 59 6 58 3 57 0 55 0 46 1" mask="url(#usafb-horizontal-dbg--b)" class="b"/><path d="M59 19L59 19C59 19 59 19 59 20 59 20 59 20 59 20 59 20 59 20 59 20 59 20 59 20 59 21 58 21 58 21 58 21 58 21 58 21 58 21 58 21 58 21 58 22 58 22 58 22 58 22 58 22 58 22 58 22 58 22 58 23 57 23 57 23 57 23 57 23 57 23 57 23 57 23 57 24 57 24 57 24L56 24C51 44 33 54 13 55 9 55 6 55 2 55 3 57 3 60 3 61 6 62 9 62 12 61 30 60 47 51 55 38 49 50 38 63 12 66 9 67 7 67 4 67 4 69 5 72 6 73 8 73 9 74 12 73 27 72 62 60 59 19" class="d"/><path d="M52 17L51 23C51 23 49 19 48 16 48 16 45 16 41 17L47 13C46 10 44 9 44 9 44 9 47 9 50 11 52 9 53 8 53 8L52 13C54 15 55 19 55 19 55 19 54 17 52 17M38 33C38 33 37 36 36 39 36 39 34 35 33 33 29 34 24 35 24 35 27 32 30 30 30 30 28 27 26 25 26 25 26 25 30 25 35 26 37 25 41 23 41 23 41 23 40 26 40 28 44 31 46 33 46 33 43 32 38 33 38 33M59 19C59 19 59 19 59 19 59 10 56 3 55 3 55 3 55 3 54 3 53 2 51 2 47 3 36 5 27 8 21 13 22 13 24 13 25 13 28 10 33 9 33 9 31 11 29 13 29 13 32 13 36 14 36 14 31 14 27 16 27 16 26 17 25 21 25 21L23 18C23 18 18 20 16 22 16 22 18 18 21 16L20 15C12 21 8 28 5 36 6 35 7 35 8 35 9 32 10 31 12 28 11 30 11 34 11 34 11 34 14 34 17 34 17 34 13 36 11 38 11 38 11 42 11 45 10 43 9 42 8 41 6 43 6 43 5 45 6 42 6 41 7 39L5 37C3 42 3 46 3 49 3 49 4 50 5 50 6 50 7 50 8 50 9 50 9 50 10 50L10 50C11 50 13 50 14 49 22 49 32 47 41 41 41 41 51 34 57 24 57 24 57 24 57 24 57 24 57 24 57 23 57 23 57 23 57 23 57 23 57 23 57 23 58 23 58 22 58 22 58 22 58 22 58 22 58 22 58 22 58 22 58 21 58 21 58 21 58 21 58 21 58 21 58 21 58 21 59 21 59 20 59 20 59 20 59 20 59 20 59 20 59 20 59 20 59 20 59 19 59 19 59 19 59 19 59 19 59 19" class="e"/></g></g></svg>
 