<?xml version="1.0" encoding="utf-8"?>
<!-- Generator: Adobe Illustrator 16.0.0, SVG Export Plug-In . SVG Version: 6.00 Build 0)  -->
<svg version="1.2" baseProfile="tiny" id="Capa_1" xmlns="http://www.w3.org/2000/svg" xmlns:xlink="http://www.w3.org/1999/xlink"
	 x="0px" y="0px" width="64px" height="64px" viewBox="-16 -16 64 64" xml:space="preserve">
<g>
	<g>
		<path fill="#FFFFFF" d="M47.989,29.678c0.082-0.658-0.333-1.271-0.978-1.434l-17.804-4.498c-0.408-0.09-0.632-0.518-0.482-0.904
			c0.517-1.305,1.168-2.434,2.256-3.336c2.663-2.223,6.096-2.346,8.977-4.112c4.206-2.582,2.385-7.869,0.761-11.511
			c-1.828-4.091-4.566-7.849-7.821-10.927c-5.226-4.94-12.129-7.814-19.346-7.814C-2.742-14.858-16-0.792-16,16.495
			c0,7.244,2.188,14.291,6.469,19.876c0.395,0.51,1.006,0.809,1.651,0.809h2.161c0.604,0,1.195-0.252,1.59-0.707
			c0.224-0.266,0.625-0.502,1.332-0.502c0.551,0,1.162,0.094,1.821,0.291c2.249,0.66,4.158,2.107,6.007,3.5
			c2.161,1.631,4.295,2.813,6.932,3.486c6.298,1.609,13.997,0.107,16.28-6.762c0.231-0.713,0.407-1.414,0.529-2.1
			c0.055-0.313,0.347-0.523,0.659-0.488c0.286,0.033,0.571,0.061,0.863,0.094c0.279,0.027,0.503,0.252,0.537,0.531
			c0.354,2.936,0.632,6.148,2.596,8.514c1.121,1.346,2.684,2.262,4.335,2.834c2.297,0.795,4.764,1.039,7.183,0.979
			c0.523-0.014,0.924-0.477,0.992-0.992C46.386,42.371,47.996,29.678,47.989,29.678z M14.144,25.635c0,2.168-1.753,3.92-3.921,3.92
			s-3.921-1.752-3.921-3.92s1.753-3.92,3.921-3.92S14.144,23.467,14.144,25.635z M29.629,30.67c-0.033,0-0.061-0.008-0.088-0.008
			c-0.299-0.033-0.53-0.277-0.544-0.576c-0.041-0.85-0.122-1.666-0.21-2.439c-0.027-0.273,0.224-0.49,0.488-0.428
			c0.096,0.025,0.197,0.047,0.293,0.066c0.258,0.055,0.448,0.266,0.476,0.523c0.062,0.57,0.149,1.299,0.251,2.188
			C30.343,30.385,30.017,30.711,29.629,30.67z M34.854,34.516c3.554,0.414,6.761,0.809,8.589,1.039
			c0.333,0.041,0.571,0.348,0.523,0.68l-0.944,7.053c-0.041,0.313-0.319,0.537-0.632,0.523c-2.644-0.135-7.284-1.072-7.883-5.938
			c-0.122-0.959-0.23-1.848-0.333-2.686C34.128,34.801,34.461,34.469,34.854,34.516z M44.667,31.029l-0.102,0.789
			c-0.048,0.332-0.347,0.564-0.68,0.523c-2.005-0.252-5.715-0.707-9.717-1.17c-0.286-0.027-0.503-0.252-0.537-0.529
			c-0.089-0.775-0.17-1.455-0.238-2.039c-0.034-0.271,0.211-0.488,0.476-0.436c3.275,0.693,7.754,1.652,10.315,2.195
			C44.497,30.432,44.701,30.725,44.667,31.029z"/>
	</g>
</g>
</svg>
