<?xml version="1.0" encoding="utf-8"?>
<!-- Generator: Adobe Illustrator 16.0.0, SVG Export Plug-In . SVG Version: 6.00 Build 0)  -->
<!DOCTYPE svg>
<svg version="1.2" baseProfile="tiny" id="Layer_1" xmlns="http://www.w3.org/2000/svg" xmlns:xlink="http://www.w3.org/1999/xlink" xmlns:a="http://ns.adobe.com/AdobeSVGViewerExtensions/3.0/" x="0px" y="0px" width="64px" height="64px" viewBox="0 0 64 64" xml:space="preserve">
<path fill="#231F20" d="M57.842,61.922c-0.155-0.985-1.558-1.298-2.336-2.129c-0.778-0.829-0.883-0.726-0.778-1.712
	c0.104-0.987-0.364-1.143-0.364-1.143c-0.363-1.35,1.143-5.555,1.402-8.409c0.259-2.855-0.676-5.866-0.676-5.866
	s-0.207-2.544-2.907-6.179c-2.172-2.924-4.479-3.326-5.296-3.372c1.416-0.032,5.278-0.51,6.283-0.988
	c1.09-0.519,0.882-1.297,0.727-2.388c-0.156-1.09-0.675-1.09-1.766-3.478c-1.09-2.388-1.066-3.53-1.066-3.53
	c1.685-1.454-0.542-6.282-1.373-7.476c-0.83-1.194-4.128-1.817-4.128-1.817s0.005-0.033,0.012-0.087
	c0.204-0.5,0.335-0.981,0.335-1.24c0-0.58-0.544-0.399-0.76-0.399c-0.219,0-0.037,0.581-0.438,0.471
	c-0.397-0.108-0.18-0.779-0.18-0.779s0.462,0.218,0.163-0.571c-0.3-0.789-0.328-1.224-0.328-1.224
	c0.436-0.353,0.764-1.36,0.764-1.36l0.217-0.054c0,0,0.327-0.054,0.489-0.888c0.164-0.835-0.571-1.179-0.571-1.179
	c-1.333-4.189-5.685-5.767-9.247-3.917c-3.563,1.85-2.911,6.582-2.911,6.582c-0.435,0.136-0.243,0.625-0.243,0.625
	s0.534,1.097,0.534,1.605c0,0.114,0.1,0.361,0.19,0.591c-0.022,0.105-0.043,0.163-0.043,0.163s-0.675,0.312-2.106-0.416
	c-1.431-0.727-3.693,0.443-3.693,0.443c-0.037-4.022-1.833-5.894-3.626-6.361s-2.619,2.077-2.619,2.077
	c0.104-0.727-0.156-0.727-1.09,0.208c-0.934,0.935-1.142,3.063-1.401,4.776s-2.44,4.465-2.751,5.918s0.467,3.375,1.973,3.789
	c1.505,0.416,1.921-1.245,4.153-0.882c2.232,0.364,4.776-0.104,5.618-0.267c0.842-0.163,1.182-0.823,1.597,0.527
	c0.416,1.35,1.713,4.153,1.713,4.153c0.26,2.751,0.675,6.593,0.104,6.905c-0.571,0.311-1.454,1.246-4.153,2.647
	c-2.699,1.401-3.478,4.465-3.478,4.465c-2.128,1.557-3.997,6.333-3.997,6.333c-2.285,0.778-4.309,7.476-6.23,11.992
	c-0.354,0.832-0.664,1.483-0.943,2.004c-0.371,0.694-0.351,0.685-0.923,0.952c-0.427,0.199-0.626,1.159-0.906,1.419
	c-0.343,0.319-0.696,0.663-1.121,1.283c-1.35,1.973,1.869,1.973,3.114,1.298c1.246-0.675,1.921-0.883,2.907-1.193
	c0.987-0.312,0.468-1.506,0.779-2.855c0.312-1.35,0.675-2.907,2.803-5.036s3.271-6.126,5.451-8.099
	c2.18-1.973,7.112-4.931,10.019-5.399c2.907-0.466,5.243-1.867,5.243-1.867c1.609,2.18,7.216,2.906,8.514,3.166
	s1.298,0.675,1.298,0.675c-0.675,2.336,0.675,7.216,1.09,8.722c0.415,1.505-0.311,6.489-0.466,6.593
	c-0.156,0.104-1.195,2.596,0.311,2.491c1.505-0.104,3.426,1.039,5.243,0.987C57.789,63.168,57.997,62.908,57.842,61.922z
	 M20.529,17.861c0,0,0.467-2.297,0.467-3.232c0,0,1.228,1.908,1.879,2.336C22.875,16.966,21.308,17.043,20.529,17.861z
	 M45.642,26.296c-0.104-0.572,0.39-1.987,0.39-1.987h0.104c0.052,0.167,0.441,1.052,1.039,1.857c0.597,0.805,1.765,2.252,2.05,2.383
	c0.286,0.13,0.26,0.932-0.882,0.932c-1.143,0-1.973-0.995-2.44-1.047C45.901,28.433,45.746,26.866,45.642,26.296z"/>
</svg>
