<?xml version="1.0" encoding="utf-8"?>
<!-- Generator: Adobe Illustrator 16.0.0, SVG Export Plug-In . SVG Version: 6.00 Build 0)  -->
<!DOCTYPE svg [
	<!ENTITY ns_flows "http://ns.adobe.com/Flows/1.0/">
	<!ENTITY ns_extend "http://ns.adobe.com/Extensibility/1.0/">
	<!ENTITY ns_ai "http://ns.adobe.com/AdobeIllustrator/10.0/">
	<!ENTITY ns_graphs "http://ns.adobe.com/Graphs/1.0/">
]>
<svg version="1.2" baseProfile="tiny" id="Layer_1" xmlns:x="&ns_extend;" xmlns:i="&ns_ai;" xmlns:graph="&ns_graphs;"
	 xmlns="http://www.w3.org/2000/svg" xmlns:xlink="http://www.w3.org/1999/xlink" xmlns:a="http://ns.adobe.com/AdobeSVGViewerExtensions/3.0/"
	 x="0px" y="0px" width="64px" height="64px" viewBox="0 0 64 64" xml:space="preserve">
<path fill="#231F20" d="M24.965,7.272c0,0-0.335,0.021-0.408-0.114c-0.072-0.135,0.114-0.104,0.135-0.311s-1.565-5.776,3.495-6.793
	c5.393-0.643,5.455,4.521,5.186,5.808c0,0,0.218,0.124,0.135,0.321s-0.259,0.135-0.259,0.135s0.11,1.784-0.139,2.379
	c0,0,0.946-0.222,2.71,0.276s5.455,1.514,7.28,4.106s0.021,4.439,0.021,4.439s1.763,2.094,2.612,2.737c0,0,0.395-0.208,0.934,0.539
	c0.539,0.746,1.142,1.742,0.892,2.945c-0.249,1.203-1.058,3.381-1.119,3.609c-0.063,0.228-0.602,0.207-0.602,0.207
	s-2.116,3.589-2.365,4.231c0,0,0.2,0.152,0.008,0.497c-0.194,0.347-0.471,0.456-0.471,0.456s0.276,0.263,0.027,0.72
	c-0.249,0.456-0.885,1.632-1.009,2.42c-0.125,0.788,0.29,3.525,0.125,3.857c-0.167,0.332-0.457,0.305-0.582-0.581
	c-0.124-0.884-0.359-1.479-0.428-1.063c-0.069,0.414,0.152,3.208-0.346,3.221c-0.498,0.015-0.249-3.29-0.443-3.471
	c-0.192-0.179-0.746,2.213-1.188,2.601c-0.442,0.387-0.318-0.637,0.068-1.95c0.388-1.313,0.401-1.479,0.401-1.479
	s-0.927,2.227-1.396,2.379c-0.47,0.151-0.041-1.287,0.235-1.908c0.276-0.623,0.636-1.48,0.165-1.839
	c-0.47-0.36-1.23,0.151-1.617,0.234s-0.815-0.761,0.803-1.466c1.617-0.705,1.202-1.217,2.031-1.563
	c0.83-0.346,0.913-1.162,1.162-1.162c0,0,0.166-0.829,0.512-0.898c0,0,0.656-1.161,0.926-2.489c0.271-1.327,0.395-1.741,0.395-1.741
	s-0.124-0.177,0-0.55c0.125-0.374,0.57-2.002,0.478-2.313c-0.094-0.311-1.308-0.498-1.297-0.653s0.011-0.248,0.011-0.248
	s-2.552-0.529-3.402-1.939c0,0-0.29,0.228-0.684,0c0,0,0.339,2.205-0.077,3.257c-0.413,1.051,0.609,2.848,0.498,3.566
	c0,0,1.439,0.719,1.245,3.706c-0.193,2.986-3.235,5.725-3.235,5.725s-0.332,0.498-0.498,2.185c-0.166,1.688-0.139,2.849-0.139,2.849
	s0.94-0.471,2.6-0.388s4.17,0.588,5.808,0.36c1.639-0.229,1.971-0.332,1.971-0.332s1.514-1.805,2.302-1.971s1.39-0.414,2.012,0.291
	s0.333,1.493,0.747,2.654c0.415,1.162,1.162,2.945,1.183,4.688c0.021,1.742,0.249,2.634-0.727,2.593
	c-0.975-0.042-1.596-2.717-3.049-3.443c-1.452-0.727-3.525-1.577-7.528-0.373c-4.003,1.203-6.409,1.991-7.944,2.012
	s-2.551-1.161-3.111-3.05c-0.56-1.887-0.934-2.82-0.934-2.82s-1.112,1.341-2.178,2.129c-1.064,0.788-1.549,1.23-1.756,2.145
	c-0.207,0.913,0.014,3.484-1.064,4.646c-1.079,1.162-2.053,2.489-2.053,2.489s-1.577,2.552-2.78,5.621
	c-1.203,3.07-2.385,3.713-3.982,4.418c-1.597,0.705-2.82-0.768-3.484-1.514s0.498-1.494,2.303-2.842
	c1.804-1.349,2.779-2.572,3.214-3.526c0.437-0.954,2.635-7.37,2.69-8.697c0.056-1.329,0-4.094,1.549-6.085
	c1.548-1.991,3.982-3.596,4.701-4.701c0.719-1.106,0.912-1.688,0.912-1.688s0-2.351,0.042-3.761
	c0.041-1.411,0.331-1.867,0.331-1.867s-0.746-1.867-1.078-3.857c-0.332-1.991-0.747-1.742-1.576-3.401
	c-0.83-1.66-1.286-2.946-1.286-2.946s-0.18,1.591-0.926,2.089c0,0-0.194,0.332,0,0.636c0,0,1.534,0.968,1.977,3.318
	s-0.94,6.472-3.374,6.997c0,0-2.765-0.857-3.042-4.978c0,0-0.712-0.906-0.795-2.026s-0.125-1.888-0.166-2.489
	c-0.041-0.601,0.539-1.41,0.934-2.136c0.395-0.727,0.705-0.83,0.705-0.83s0.644-2.24,1.639-2.737c0,0-2.323-1.328-2.613-2.365
	c-0.291-1.037,0.228-1.472,0.228-1.472s0.083-4.065,2.842-4.854c2.759-0.788,3.941-0.248,3.941-0.248S24.916,7.377,24.965,7.272z"/>
</svg>
