<?xml version="1.0" encoding="utf-8"?>
<!-- Generator: Adobe Illustrator 22.0.1, SVG Export Plug-In . SVG Version: 6.00 Build 0)  -->
<svg version="1.1" id="Layer_1" xmlns="http://www.w3.org/2000/svg" xmlns:xlink="http://www.w3.org/1999/xlink" x="0px" y="0px"
	 viewBox="0 0 1809 1947" style="enable-background:new 0 0 1809 1947;" xml:space="preserve">
<path d="M1195.1,101c3.4,0,4.4-0.5,4.4-0.5C1197.6,100.5,1196.2,100.7,1195.1,101z M1363,189.5l1.5-0.5
	C1363.9,189.1,1363.4,189.3,1363,189.5z M1753.3,1056.3c0,0-20.7-55.3-124-156.3c0,0-2.3,2.5-0.3-72s-4-142-10.5-168
	c-0.5-2-1.5-26.5-15.5-35.5l-74.5-98c0,0,5-6-12-18c0,0,7.5-13.5-23.5-29.5c0,0-13-59-48-69.5c0,0-1.5-13-34-27c0,0-43.1-45-36-45
	c4,0,13,1.5,18,13.5l-1.5-9l5.5,1.5l-1-5c0,0,11.5-17,4-40l9.5-1.5l27,13.5c0,0,5,5,4.5,10.5l2-13.5l7.5-6.5l-0.5-7.5l5-3
	c0,0,30.5,9.5,15.5,34.5l9-7c0,0-4.5,12.5-3,11.5s8-13.5,8-13.5s4.5-4.5,3-30.5l0.5-6c0,0,12,7.5,26,2.5l-14-4l4-1
	c0,0-14-4.5-13.5-8.5c0,0,1-4,11.5-0.5l-2.5-6.5c0,0,5-13-6-18c0,0,7-13.5-23-17.5l6.5-1.5l-27.5-2.5l-11.5-7.5c0,0-4-14.5-24-15
	l12.5-3l-21-2c0,0-1.5-3.5,6-7l-31,14.5l-14-3c0,0,10-1.5,8-1.5S1360,193,1360,193s1-2.3,3-3.5l-11,4l-11.5-8.5l-16.5-4.5l-5-1.5
	c0,0,21-3.5,24.5-20.5l-5,4.5l-1-3c0,0-15,23.5-48.5,14c0,0-4-3.5,1.5-8.5l-8,3l-18-5c0,0,9.5-11,21-7.5s-21-18-32-9l-0.5-3l-10,1
	c0,0-6.5-8,9-11c0,0-4-12.5-29.5-13.5l-1-3l-8-3c0,0-12-7.5,10.5-8c0,0-2.5-6-22.5,0.5h-9.5c0,0-2-4.4,3.1-6c-3.1,0-8.1-0.4-16.1-2
	c-5-1-12.5,0-12.5,0l-4,1.5c0,0-25.5-9.5-46.5,9l-21,16c0,0-41.5,13.5-37.5,45c0,0-12.5,12-8,37l-4,14.5c0,0-13.5,25.5,12.5,43.5
	c0,0,3.5,6.5,3.5,8s14,30,28.5,34.5c0,0,3.5,35,30.2,64.5l-3.8,1.2c0,0-15-0.8-30.2,14.5c0,0-38.8,22.5-39.2,23.5
	c0,0-29.2,33.5-11.5,95c0,0,18.2,44.2,22.2,51c0,0,1.8,23.2,22.2,41c0,0-78.5,23-105.2,92.5c0,0-8,21-7.2,51.5c0,0-15-6.5-13.8,8.2
	l-1.2,7.8c0,0-4.8,9,1.2,17.5c0,0,0.2,14,9,23l6,12c0,0,1,11.5,11,12.2l9,7.5c0,0,6.8-5.7,22.5,10c1.2,1.2,4.2,6.5,28.8,1.8
	c0,0,5.2-2.2,15-13.5c0,0,7.5-9.2,13.2-13.2s11-13.5,11-13.5l10.8-8.2c0,0,62.2-28,77.2-52.2l0.8,3.8c0,0-6.2,11.2-2.8,23
	c0,0-33,15.5-48.8,30.8c0,0-16.8,0-16.2,15.2l-1.5,12.5c0,0,11,25,17.2,27.8s1,0.8,1,0.8s6.8,5,8-2.8c0,0,7-4.5,1.8-17.8
	c0,0,18.5-26.5,38.5-30.2l-11.8,26l-11.5,25l-13.5,0.8c0,0-2.5,6-2,7s-10.8,14.5-12,20.8l-14,28.2c0,0-22.8,3.2-27.8,31.2
	c0,0-17.8,37.5-18.8,46.8l-13.2,16.8l-1.5,5.2l-40.8,70.8c0,0-11.8,10.2-5.5,17.5c0,0-25.5,53-34.5,64l-14.5-11.2
	c0,0-5.2-7-15.2-6.5l-2.5-19.2c0,0,6.5-14.5-2.8-33.5c0,0-2-5,5.8-15.2l-11.8-15.8l-0.2-0.8l-2-6.7c0,0-5.7-44.7-13.3-65.7l3.7-10
	l3.7-8.3c0,0,9.3-12-3.7-27.3l3-7l2.7-29.3c0,0,7-20.3-1-25c0,0,4-15-37.7-27l-2-7.7c0,0,1.3-19.3-7.3-32.7c0,0,3.2-23.5-7.8-26.5
	l-12.8-39.2c0,0,9.8-33.8,7.2-72.5c0,0,10.3-113.8-0.3-164.4l-3-18.3l-3-33c0,0,3.7-15.3-22.7-26.3l-68-7.7c0,0,10-54-97-69.7
	c0,0-38.7-2.3-55.7,0.3c0,0-9.7-21-74-32c0,0,5.7-11.3,2.3-15.7c0,0,24.3-180-107.3-253S170.7,66,159,73c-11.7,7-106,72-105,158
	l-14.3,3L36,251.3l-3.7,1l-4.7,34.3c0,0,2.3,9.7,10,10.7H49v4c0,0-18,4.7-12,14c0,0-3.3,5.3,19.7,1.7l34.3-6c0,0,24.7,50.3,21,74
	c0,0-67.3,29.7-67.3,36c0,0-3.7,8.7-0.3,11.7c0,0,27.3,61,58,113.3c0,0,1.3,2,15.7,2.3c0,0-0.3,25.7,28.7,31.3c0,0,35.7,4,36.3-50.7
	l35-18.7c0,0,2.7,34,23.7,43s35,8,35,8s-4.7,5-1.7,15.7s20,61.3,20,61.3s-19.7-1.3-23.3,0c0,0,3.7-15.3-8.3-13.3l-10.7,4
	c0,0,2-10.3-12.3-9.3l-39.7,0.7c0,0-5-7.7-17,6.7c0,0-27.7-1.3-61.3,49.3l-21,23c0,0-6.7,7.7-0.3,42c0,0,10.7,47,11.3,62
	c0,0-9.7,11.3,5.7,38c0,0-12.7,26-6.3,32.3c2.7,2.7,9.7,6.3,17,9.7c7.3,3.3,9,4.3,9,4.3s5.7,21.3,72,41L244,944
	c0,0,22.7,17,54.3,29.3c0,0-12.7,1.7,114.7,47.3v5.7c0,0,49.3,112.3,61,127.7l-2.3,3.3c0,0-14,2.7-7,33.3c0,0-6.3,18.7-5.7,33.3
	l-4.3,27.7c0,0-30.3-17.3-48.3-5.3c0,0-21-4-85.7,27.7c0,0-62,21.3-70.7,31.7c0,0-37,10.3-39.7,51c0,0-121,57.7-159.7,161.7
	c0,0-12,15.3-1.3,36.7l-1.3,24.3c0,0-0.3,9.7,16.7,10c0,0,29.7,67,66.3,91.7c0,0,118,112,186,141.3c0,0,88.7,25.3,110,82l1.3,46H657
	c0,0-7.3-30.7-12-35.3c0,0,3.3-20-18-29.3c0,0-14-40-42-14.7c0,0-96.7-84.7-113.3-117.3s-70.7-140.7-154-172
	c0,0-5.7-19.7,115.3-25.7s126.5-10.5,249-49.5l55.5,65c0,0,22.5,45.5,39,65l53,84c0,0,11,25,32,53S897,1796,897,1796l20.5,17l88,137
	H1386c0,0-14.5-14-167.5-109c0,0-4-12.5-11-13c0,0-3-17-21.5-15.5l-7.5-12.5c0,0-1.5-12.5-17.5-15l-2.5-6.5c0,0-3.5-14.5-11.5-16
	l-23.5-52l10-5c0,0,29.5-8.8,46.5-33.2l1.7-4.3l3,0.3l8.3-10v-6.7c0,0,9.3-8.7,8.7-20l13-27.3l4-0.7l10.7-15c0,0,10.3-6.7,16.7-18
	c0,0,11,1.3,14-24l4.3-4c0,0,19-46.7-17.3-52c0,0,1.7-5.7-10.3-3.3c0,0,1.7-13.3-24-24l-3.3-23.3c0,0,25-42.3,11-63
	c0,0,15-79,4.7-115.7c-10.3-36.7-16.3-45.3-16.3-45.3s-1.3-8.3,4.7-16.7c0,0,20-32.7,42-35.7c0,0,28,49.7,86.3,59.3l30.7-45.7
	l1.3-4.7c0,0,3.1-5.7,14.6-11.7c0,0,61.2-65.8,92.5-149.8c0,0,9.8-13,26.2-65c0,0,19.2-37.8,14-82l6-0.8l39,30c0,0,0.8,35.5-4,46.2
	c0,0-5,10-18.2,27.2c0,0-12.2,15-10.5,24.2c0,0-9,30.5-6.5,50.8l-1,14.2c0,0-6.2,28.5-5.5,34.5s6.8,7.8,12.2,2.2
	c0,0,3.2-5.8,7.8-20.2c0,0,15.2-32.5,23-40.2l-0.2,9.8c0,0-7,19.2-7.5,26.8l-6.5,26.2c0,0-4,11.5,7,11.8c0,0,8,2.8,12.8-15.8
	l8.2-22.5c0,0,8.9-20.1,9.7-25.4l-2.4,25.9l-8.2,27c0,0-3.8,10.8,8.5,10.8c0,0,6.5,1,9.2-8.8l4-17l4-10.5c0,0,8.2-22.5,9.8-41.8
	l1,1.5c0,0,2,18-0.2,26c0,0-6,21.5-4.2,26s8.2,3.8,8.2,3.8s4.5,1.2,5-7.8c0,0,7-24,7-25.5s3.8-27,3.8-27s12.5-24.2-4.2-83
	c0,0,61,60.8,95.5,122.5s24.8,112,13.2,124.5s-20.8,32.5-76,44.8s-112,36.8-124,52.2c0,0-50,34.5-34,120.8c0,0,9.8,56.2,54.2,118.9
	l17,26.3l46.3-30.7l-41.7-56c0,0-43-58.7-35.3-112c7.7-53.3,86.3-72.7,104.3-77.7S1736,1254,1760,1214S1790.7,1138.3,1753.3,1056.3z
	 M157,421.2l-22.8,5.2L135,413l17.8-6.2C152.8,406.8,152.5,419.8,157,421.2z M150.8,390l-20.8,7l1.5-6l19.5-5L150.8,390z M108.2,315
	l12.8-0.8c0,0,21.8,46.5,22.2,59l-16.2,5.2C127,378.5,116.8,327,108.2,315z M58,430.2l32.2-5l-14.8,14.5L65,441.5
	C58,440.5,58,430.2,58,430.2z M122.2,501l-15.8,25.5l-38-67.8c0,0,27.2-2.2,48.2-11.8c0,0,6,24,9.8,28
	C126.5,475,124.5,499.5,122.2,501z M138.2,507.5c0.8-0.8,7.5,18.8,7.5,18.8s-17.8,7-18.8,7C115.7,533.2,137.5,508.2,138.2,507.5z
	 M159.2,569.8c0,0-26.2,16-33.8-21.2c0,0,22.5-4.8,25.2-5.5c0,0,3.8,2,24.8-10C175.5,533,181,551.8,159.2,569.8z M148.5,500.2
	c2.8-7.2,19.2-12.5,19.2-12.5l8,28l-9.5,5.2l-10,2.2L148.5,500.2z M164,482.2c0,0,7-0.2,1,0.2s-20,9.2-20,9.2l-4.5-14.8
	c1.5-5-2.2-34.8-2.2-34.8l33.2-9.2l5.5,8.2c-3.2,9.5,2.2,29.8,2.2,29.8C167.8,461,164,482.2,164,482.2z M216,496.5l-34,15v-26
	c0,0,7.5,0.8,10.2-2l23.8,10.8V496.5z M219.5,489l-23-12.5c-1-8.8,8.5-12.8,8.5-12.8l3.5,2.8c-0.8,12,11,13.5,11,13.5V489z
	 M1130.3,1472.7c-2,1.3-8.7,41-8.7,41c-19,9.7-17.3,31.3-17.3,31.3c-3.7,3.7-4,12.7-4,12.7l-11.7,40.3l-4.3,9.3l-1.7,5
	c-0.7-8-62.3-123-62.3-123c2.7-8.3-8.7-20.7-8.7-20.7l-12-32.3c0,0-3.7,1.3,0.7-1.3c4.3-2.7-4.3-9.3-4.3-9.3l-2.7-17.3l-1.3-6.7
	c0.3-6.7-5.7-8.7-5.7-8.7l-0.7-3.3c10.3-4.7,2-15.7,2-15.7c8.7-3.7-0.7-14-0.7-14l-4.3-34c2-9.3,27-36.7,27-36.7l80.7-83.7
	c-0.7,4,17.3,69.7,17.3,69.7l8.7,37.7c16.7,71.7,10.7,72.3,10.7,72.3c-6.7-0.3-4.7,10-4,24.3c0.7,14.3,10.3,21,10.3,21
	L1130.3,1472.7z M1563.2,838.8l-27.8-30.5l-0.2-2.2l3.2-5.5l-8.8-11l-11.5,1.5c-14.5-16-19.5-27.2-19.5-27.2l-3.8-35.5l7.5-11
	c23-5.5,12.8-36.2,12.8-36.2v-27.5c24,15,23.8,23.8,23.8,23.8c-0.8,8,4.2,40,4.2,40l20,120.5V838.8z"/>
</svg>
